<svg height="160" width="160" xmlns="http://www.w3.org/2000/svg" version="1.1">
  <style>
    use { display: none; }
    use:target { display: inline }
  </style>
  <symbol id="star-internal" height="100" width="100" viewBox="0 0 100 100">
    <path fill="none" stroke="#ff7aab" stroke-width="2px" stroke-linejoin="round"
      vector-effect="non-scaling-stroke"
      d="M 22.5,90
         L 90,40
         L 10,40
         L 77.5,90
         L 50,10 Z" />
  </symbol>
  <use id="moon" href="#moon-internal" />

  <symbol id="moon-internal" height="100" width="100" viewBox="0 0 100 100">
    <path fill="none" stroke="#ff7aab" stroke-width="2px" stroke-linejoin="round"
      vector-effect="non-scaling-stroke"
      d="M 80,20
         A 40,40 0,1,0 80,80
         C 20,90 20,10 80,20" />
  </symbol>
  <use id="star" href="#star-internal" />

  <symbol id="heart-internal" height="100" width="100" viewBox="0 0 100 100">
    <path fill="none" stroke="#ff7aab" stroke-width="4px" stroke-linejoin="round"
      vector-effect="non-scaling-stroke"
      d="M 10,45
         A 10,10 0,0,1 50,20
         A 10,10 0,0,1 90,45
         L 50,90 Z" />
  </symbol>
  <use id="heart" href="#heart-internal" />

  <symbol id="curly-heart-internal" height="100" width="140" viewBox="0 0 140 100">
    <path fill="none" stroke="#ff7aab" stroke-width="2px" stroke-linejoin="round"
      opacity="0.5" vector-effect="non-scaling-stroke"
      d="M -1,80
         Q 90,80 110,45
         A 10,10 0,0,0 70,20
         C 65,25 65,35 70,35
         C 75,35 75,25 70,20
         A 10,10 0,0,0 30,45
         Q 50,80 141,80" />
  </symbol>
  <use id="curly-heart" href="#curly-heart-internal" />

  <symbol id="wave-internal" height="160" width="160">
    <g transform="scale(4)">
      <pattern x="-15" id="wave-pattern" patternUnits="userSpaceOnUse" width="20" height="10">
          <path d="m 0,12.5 v -10 q 5,-5 10,0 t 10,0 v 10" fill="#ff7aab" />
          <animate attributeName="x" from="-15" to="5" dur="8s" repeatCount="indefinite"/>
      </pattern>
      <rect x="10" y="0" width="20" height="10" fill="url(#wave-pattern)"/>
      <rect x="10" y="-40" width="20" height="10" fill="url(#wave-pattern)" transform="rotate(90 0 0)"/>
      <rect x="-30" y="-40" width="20" height="10" fill="url(#wave-pattern)" transform="rotate(180 0 0)"/>
      <rect x="-30" y="0" width="20" height="10" fill="url(#wave-pattern)" transform="rotate(270 0 0)"/>
      <pattern id="top-right-wave-corner" patternUnits="userSpaceOnUse" width="40" height="40">
        <path fill="#ff7aab">
          <animate attributeName="d"
            values="m 30,0 a 10,10 0,0,1 10,10 h -10;
                    m 30,5 a 5,5 0,0,1 5,5 h -5;
                    m 30,0 a 10,10 0,0,1 10,10 h -10"
            calcMode="spline" keyTimes="0;0.5;1" keySplines="0.5 0 0.5 1; 0.5 0 0.5 1"
            dur="8s" repeatCount="indefinite"/>
        </path>
      </pattern>
      <rect x="0" y="0" width="40" height="40" fill="url(#top-right-wave-corner)" />
      <rect x="0" y="-40" width="40" height="40" fill="url(#top-right-wave-corner)" transform="rotate(90)" />
      <rect x="-40" y="-40" width="40" height="40" fill="url(#top-right-wave-corner)" transform="rotate(180)" />
      <rect x="-40" y="0" width="40" height="40" fill="url(#top-right-wave-corner)" transform="rotate(270)" />
      <rect x="10" y="10" width="20" height="20" fill="#ff7aab" />
    </g>
  </symbol>
  <use id="wave" href="#wave-internal" />
</svg>
