<svg height="160" width="160" xmlns="http://www.w3.org/2000/svg" version="1.1">
  <style>
    use { display: none; }
    use:target { display: inline }
  </style>
  <symbol id="star-internal" height="100" width="100" viewBox="0 0 100 100">
    <path fill="none" stroke="#ff7aab" stroke-width="2px" stroke-linejoin="round"
      vector-effect="non-scaling-stroke"
      d="M 22.5,90
         L 90,40
         L 10,40
         L 77.5,90
         L 50,10 Z" />
  </symbol>
  <use id="moon" href="#moon-internal" />

  <symbol id="moon-internal" height="100" width="100" viewBox="0 0 100 100">
    <path fill="none" stroke="#ff7aab" stroke-width="2px" stroke-linejoin="round"
      vector-effect="non-scaling-stroke"
      d="M 80,20
         A 40,40 0,1,0 80,80
         C 20,90 20,10 80,20" />
  </symbol>
  <use id="star" href="#star-internal" />

  <symbol id="heart-internal" height="100" width="100" viewBox="0 0 100 100">
    <path fill="none" stroke="#ff7aab" stroke-width="4px" stroke-linejoin="round"
      vector-effect="non-scaling-stroke"
      d="M 10,45
         A 10,10 0,0,1 50,20
         A 10,10 0,0,1 90,45
         L 50,90 Z" />
  </symbol>
  <use id="heart" href="#heart-internal" />

  <symbol id="curly-heart-internal" height="100" width="140" viewBox="0 0 140 100">
    <path fill="none" stroke="#ff7aab" stroke-width="2px" stroke-linejoin="round"
      opacity="0.5" vector-effect="non-scaling-stroke"
      d="M -1,80
         Q 90,80 110,45
         A 10,10 0,0,0 70,20
         C 65,25 65,35 70,35
         C 75,35 75,25 70,20
         A 10,10 0,0,0 30,45
         Q 50,80 141,80" />
  </symbol>
  <use id="curly-heart" href="#curly-heart-internal" />

  <symbol id="wave-internal" height="160" width="160">
    <g transform="scale(4)">
      <pattern x="-15" id="wave-pattern" patternUnits="userSpaceOnUse" width="20" height="10">
          <path d="m 0,12.5 v -10 q 5,-5 10,0 t 10,0 v 10" fill="#ff7aab" />
          <animate attributeName="x" from="-15" to="5" dur="8s" repeatCount="indefinite"/>
      </pattern>
      <rect x="10" y="0" width="20" height="10" fill="url(#wave-pattern)"/>
      <rect x="10" y="-40" width="20" height="10" fill="url(#wave-pattern)" transform="rotate(90 0 0)"/>
      <rect x="-30" y="-40" width="20" height="10" fill="url(#wave-pattern)" transform="rotate(180 0 0)"/>
      <rect x="-30" y="0" width="20" height="10" fill="url(#wave-pattern)" transform="rotate(270 0 0)"/>
      <pattern id="top-right-wave-corner" patternUnits="userSpaceOnUse" width="40" height="40">
        <path fill="#ff7aab">
          <animate attributeName="d"
            values="m 30,0 a 10,10 0,0,1 10,10 h -10;
                    m 30,5 a 5,5 0,0,1 5,5 h -5;
                    m 30,0 a 10,10 0,0,1 10,10 h -10"
            calcMode="spline" keyTimes="0;0.5;1" keySplines="0.5 0 0.5 1; 0.5 0 0.5 1"
            dur="8s" repeatCount="indefinite"/>
        </path>
      </pattern>
      <rect x="0" y="0" width="40" height="40" fill="url(#top-right-wave-corner)" />
      <rect x="0" y="-40" width="40" height="40" fill="url(#top-right-wave-corner)" transform="rotate(90)" />
      <rect x="-40" y="-40" width="40" height="40" fill="url(#top-right-wave-corner)" transform="rotate(180)" />
      <rect x="-40" y="0" width="40" height="40" fill="url(#top-right-wave-corner)" transform="rotate(270)" />
      <rect x="10" y="10" width="20" height="20" fill="#ff7aab" />
    </g>
  </symbol>
  <use id="wave" href="#wave-internal" />

  <symbol id="github-internal" height="24" width="24" viewBox="0 0 24 24">
    <path fill="#ff7aab" stroke="none" stroke-linejoin="round"
      vector-effect="non-scaling-stroke"
      d="M12 .297c-6.63 0-12 5.373-12 12 0 5.303 3.438 9.8 8.205 11.385.6.113.82-.258.82-.577 0-.285-.01-1.04-.015-2.04-3.338.724-4.042-1.61-4.042-1.61C4.422 18.07 3.633 17.7 3.633 17.7c-1.087-.744.084-.729.084-.729 1.205.084 1.838 1.236 1.838 1.236 1.07 1.835 2.809 1.305 3.495.998.108-.776.417-1.305.76-1.605-2.665-.3-5.466-1.332-5.466-5.93 0-1.31.465-2.38 1.235-3.22-.135-.303-.54-1.523.105-3.176 0 0 1.005-.322 3.3 1.23.96-.267 1.98-.399 3-.405 1.02.006 2.04.138 3 .405 2.28-1.552 3.285-1.23 3.285-1.23.645 1.653.24 2.873.12 3.176.765.84 1.23 1.91 1.23 3.22 0 4.61-2.805 5.625-5.475 5.92.42.36.81 1.096.81 2.22 0 1.606-.015 2.896-.015 3.286 0 .315.21.69.825.57C20.565 22.092 24 17.592 24 12.297c0-6.627-5.373-12-12-12" />
  </symbol>
  <use id="github" href="#github-internal" />

  <symbol id="twitter-internal" height="24" width="24" viewBox="0 0 24 24">
    <path fill="#ff7aab" stroke="none" stroke-linejoin="round"
      vector-effect="non-scaling-stroke"
      d="M23.954 4.569c-.885.389-1.83.654-2.825.775 1.014-.611 1.794-1.574 2.163-2.723-.951.555-2.005.959-3.127 1.184-.896-.959-2.173-1.559-3.591-1.559-2.717 0-4.92 2.203-4.92 4.917 0 .39.045.765.127 1.124C7.691 8.094 4.066 6.13 1.64 3.161c-.427.722-.666 1.561-.666 2.475 0 1.71.87 3.213 2.188 4.096-.807-.026-1.566-.248-2.228-.616v.061c0 2.385 1.693 4.374 3.946 4.827-.413.111-.849.171-1.296.171-.314 0-.615-.03-.916-.086.631 1.953 2.445 3.377 4.604 3.417-1.68 1.319-3.809 2.105-6.102 2.105-.39 0-.779-.023-1.17-.067 2.189 1.394 4.768 2.209 7.557 2.209 9.054 0 13.999-7.496 13.999-13.986 0-.209 0-.42-.015-.63.961-.689 1.8-1.56 2.46-2.548l-.047-.02z" />
  </symbol>
  <use id="twitter" href="#twitter-internal" />

  <symbol id="linkedin-internal" height="24" width="24" viewBox="0 0 24 24">
    <path fill="#ff7aab" stroke="none" stroke-linejoin="round"
      vector-effect="non-scaling-stroke"
      d="M20.447 20.452h-3.554v-5.569c0-1.328-.027-3.037-1.852-3.037-1.853 0-2.136 1.445-2.136 2.939v5.667H9.351V9h3.414v1.561h.046c.477-.9 1.637-1.85 3.37-1.85 3.601 0 4.267 2.37 4.267 5.455v6.286zM5.337 7.433c-1.144 0-2.063-.926-2.063-2.065 0-1.138.92-2.063 2.063-2.063 1.14 0 2.064.925 2.064 2.063 0 1.139-.925 2.065-2.064 2.065zm1.782 13.019H3.555V9h3.564v11.452zM22.225 0H1.771C.792 0 0 .774 0 1.729v20.542C0 23.227.792 24 1.771 24h20.451C23.2 24 24 23.227 24 22.271V1.729C24 .774 23.2 0 22.222 0h.003z" />
  </symbol>
  <use id="linkedin" href="#linkedin-internal" />
</svg>
